<svg xmlns="http://www.w3.org/2000/svg" version="1.1" xmlns:xlink="http://www.w3.org/1999/xlink" xmlns:svgjs="http://svgjs.dev/svgjs" width="100%" height="100%" viewBox="0 0 1000 600"><rect width="1000" height="600" x="0" y="0" fill="#63306e"/><g><circle r="166.66666666666666" cx="306.0928599039713" cy="328.3150782080895" fill="#ec8b5e" transform="matrix(0.8965316526088685,0,0,0.8965316526088685,0,5.6551293303514285)"/><path d="M251.56861114739183 253.31508036297825L360.6171148158352 253.31508036297825L360.6171148158352 297.8735365240502L351.87955293079597 297.65587484008125L351.4131350365768 286.46184537882107Q324.7962205398025 269.6708011869307 300.16935572502996 259.5961746717965L300.16935572502996 259.5961746717965L300.16935572502996 327.19567480729575L342.0225880996307 327.19567480729575L342.0225880996307 335.4668187981158L300.16935572502996 335.4668187981158L300.16935572502996 395.2615928370141L324.11214096161433 395.4792545209831L324.11214096161433 403.3150751438653L251.56861114739183 403.3150751438653L251.56861114739183 395.4792545209831L262.5449789246831 395.2615928370141L262.5449789246831 261.3685626698294L251.56861114739183 261.1509009858604L251.56861114739183 253.31508036297825Z " fill="#141a46" transform="matrix(0.8965316526088685,0,0,0.8965316526088685,0,5.6551293303514285)"/><path d="M556.0928649885168 261.20981427346226L678.4900957206141 261.20981427346226L678.4900957206141 301.46144594312796L670.4224816422272 301.2597555911683L669.990288030885 290.8871089189567Q648.6399236305829 275.52982926259887 634.5215989934059 268.26897659205076L634.5215989934059 268.26897659205076L634.5215989934059 392.74073665859027L650.9161433169847 392.94242701055L650.9161433169847 400.20327968109814L583.6956302995688 400.20327968109814L583.6956302995688 392.94242701055L600.0901746231478 392.74073665859027L600.0901746231478 268.26897659205076Q585.971849985971 275.52982926259887 564.6214855856686 290.8871089189567L564.6214855856686 290.8871089189567L564.1892919743265 301.2597555911683L556.0928649885168 301.46144594312796L556.0928649885168 261.20981427346226ZM722.6890957072048 303.73766562953Q743.4343890516279 303.73766562953 756.0832554102417 315.9831512842242Q768.7321217688552 328.22863693891856 768.7321217688552 350.81795635840166L768.7321217688552 350.81795635840166Q768.7321217688552 360.58553197473424 765.3321986929636 370.9581786469459Q761.9034627096491 381.33082531915755 755.2476810949802 389.1967490455847L755.2476810949802 389.1967490455847Q748.6207123877339 395.6508403082941 739.8039627163539 399.4829569955279Q730.9872130449742 403.3150736827616 721.2484503360643 403.3150736827616L721.2484503360643 403.3150736827616Q700.5031569916409 403.3150736827616 687.8254777256045 391.06958802806736Q675.176611366991 378.824102373373 675.176611366991 356.2347829538899L675.176611366991 356.2347829538899Q675.176611366991 346.668897689517 678.7205989799966 336.29625101730534Q682.2357736855795 325.92360434509374 688.8627423928258 318.05768061866655L688.8627423928258 318.05768061866655Q695.5185240074948 311.6324022633799 704.3352736788747 307.68503394645495Q713.1520233502547 303.73766562953 722.6890957072048 303.73766562953L722.6890957072048 303.73766562953ZM705.0555963644449 346.2655169855976Q705.0555963644449 365.9735456627997 712.8350813686036 375.7123083717095Q720.6145663727625 385.47988398804216 735.7701556771606 387.35272297052484L735.7701556771606 387.35272297052484Q737.2108010483009 381.12913496719784 738.0463753635624 373.43608868530754Q738.881949678824 365.77185531084007 738.881949678824 360.78722232669395L738.881949678824 360.78722232669395Q738.881949678824 340.87750329753214 731.1024646746653 331.2251793108908Q723.3229796705066 321.5728553242494 708.3690807180681 319.70001634176674L708.3690807180681 319.70001634176674Q706.9284353469277 326.1541076044762 705.9776094019749 333.8183409789437Q705.0555963644449 341.48257435341117 705.0555963644449 346.2655169855976L705.0555963644449 346.2655169855976ZM876.2042664559369 380.2935606519364L878.6821764942986 385.88326469196153L848.3998107929251 402.2778090155404Q842.8101067529001 398.96432466191726 840.2169450848471 393.46105934416056Q837.6237834167941 387.95779402640386 837.1915898054522 379.2562959847152L837.1915898054522 379.2562959847152L816.6767997204113 403.3150736827616Q804.6330044176766 403.3150736827616 795.4128740423773 397.8118083650049Q786.1639307596554 392.3085430472482 780.9776074235497 382.6850319680296Q775.7912840874437 373.0327079813882 775.7912840874437 360.78722232669395L775.7912840874437 360.78722232669395Q775.7912840874437 350.21288530252264 779.3352717004493 338.37078035174767Q782.8504464060322 326.55748830839553 787.8350793901784 319.93051960114923L787.8350793901784 319.93051960114923Q791.7824477071033 314.31200265370126 802.155094379315 309.03924059532704Q812.5277410515266 303.73766562953 819.5580904626922 303.73766562953L819.5580904626922 303.73766562953Q825.7816784660192 303.73766562953 836.5865187495731 305.8121949639723L836.5865187495731 305.8121949639723L836.1543251382309 269.3062412592719L828.2884014118038 270.94857698237206L826.2138720773614 264.9554922384276L864.5926647645445 253.31507763961233L867.5027684142483 258.2997106237584L866.2350004876446 365.77185531084007Q866.2350004876446 373.2343983333479 867.0705748029061 376.86482466862196Q867.9061491181676 380.49525100389604 869.9806784526099 383.2036643016402L869.9806784526099 383.2036643016402L876.2042664559369 380.2935606519364ZM805.6702690848979 348.34004632003996Q805.6702690848979 357.8771186769901 808.7820630865613 364.93628099557856Q811.8938570882249 371.99544331416706 816.9649287946395 375.7123083717095Q822.0648134084768 379.4579863366749 827.8562078004616 379.4579863366749L827.8562078004616 379.4579863366749L837.1915898054522 370.1226043316844L836.7882091015326 328.22863693891856Q823.3037684276576 321.7745456762091 810.8565924210036 319.4983259898071L810.8565924210036 319.4983259898071Q805.6702690848979 331.34043094058205 805.6702690848979 348.34004632003996L805.6702690848979 348.34004632003996ZM929.9403387994778 303.73766562953Q950.6856321439011 303.73766562953 963.3344985025146 315.9831512842242Q975.9833648611282 328.22863693891856 975.9833648611282 350.81795635840166L975.9833648611282 350.81795635840166Q975.9833648611282 360.58553197473424 972.5546288778139 370.9581786469459Q969.1547058019223 381.33082531915755 962.4989241872531 389.1967490455847L962.4989241872531 389.1967490455847Q955.8719554800068 395.6508403082941 947.0552058086269 399.4829569955279Q938.2384561372471 403.3150736827616 928.4708805209143 403.3150736827616L928.4708805209143 403.3150736827616Q907.7255871764912 403.3150736827616 895.0767208178775 391.06958802806736Q882.4278544592639 378.824102373373 882.4278544592639 356.2347829538899L882.4278544592639 356.2347829538899Q882.4278544592639 346.668897689517 885.9430291648468 336.29625101730534Q889.4870167778524 325.92360434509374 896.1139854850987 318.05768061866655L896.1139854850987 318.05768061866655Q902.7697670997677 311.6324022633799 911.5865167711477 307.68503394645495Q920.4032664425276 303.73766562953 929.9403387994778 303.73766562953L929.9403387994778 303.73766562953ZM912.3068394567179 346.2655169855976Q912.3068394567179 365.9735456627997 920.0863244608768 375.7123083717095Q927.8658094650355 385.47988398804216 942.9925858620106 387.35272297052484L942.9925858620106 387.35272297052484Q944.4620441405741 381.12913496719784 945.2976184558354 373.43608868530754Q946.1043798636742 365.77185531084007 946.1043798636742 360.78722232669395L946.1043798636742 360.78722232669395Q946.1043798636742 340.87750329753214 938.3248948595156 331.2251793108908Q930.5454098553566 321.5728553242494 915.620323810341 319.70001634176674L915.620323810341 319.70001634176674Q914.1796784392006 326.1541076044762 913.2288524942478 333.8183409789437Q912.3068394567179 341.48257435341117 912.3068394567179 346.2655169855976L912.3068394567179 346.2655169855976Z " fill="#e1eaeb" transform="matrix(0.8965316526088685,0,0,0.8965316526088685,0,5.6551293303514285)"/></g></svg>